<?xml version="1.0" encoding="utf-8"?>
<!-- Svg Vector Icons : http://www.onlinewebfonts.com/icon -->
<!DOCTYPE svg PUBLIC "-//W3C//DTD SVG 1.1//EN" "http://www.w3.org/Graphics/SVG/1.1/DTD/svg11.dtd">
<svg version="1.1" xmlns="http://www.w3.org/2000/svg" xmlns:xlink="http://www.w3.org/1999/xlink" x="0px" y="0px" viewBox="0 0 1000 1000" enable-background="new 0 0 1000 1000" xml:space="preserve">
<metadata> Svg Vector Icons : http://www.onlinewebfonts.com/icon </metadata>
<g><g transform="translate(0.000000,512.000000) scale(0.100000,-0.100000)"><path d="M3782.1,4987.1c-55.5-19.1-134-61.3-172.3-91.9c-88.1-68.9-187.7-214.4-214.5-308.3c-11.5-40.2-19.2-308.3-19.2-630v-561h-329.3c-181.9,0-407.8-9.6-503.6-21.1c-785-95.7-1426.5-683.6-1583.5-1449.5c-34.5-168.5-34.5-273.8-30.6-2077.5l5.7-1899.4l53.6-168.5c157-505.5,495.9-911.4,951.6-1143.1c130.2-65.1,384.9-147.4,515.1-164.7l97.6-13.4v-553.4v-555.3l65.1-65.1l65.1-65.1h2320.7h2320.7l65.1,65.1l65.1,65.1v557.2v557.2h44c74.7,0,327.4,70.9,478.7,134c279.6,114.9,584,363.8,771.6,626.1c107.2,147.4,222.1,390.6,279.6,589.7l44,153.2V-88.8v1943.5l-44,160.8c-201.1,735.3-813.8,1267.6-1564.4,1359.5c-93.8,11.5-319.8,21.1-501.7,21.1h-329.3l-5.7,599.3c-5.7,580.2-7.6,599.3-49.8,679.7c-67,126.4-168.5,227.9-287.2,285.3l-109.2,53.6l-1148.8,3.8C3958.2,5023.5,3877.8,5019.7,3782.1,4987.1z M3975.5,883.8c222.1-122.5,271.9-428.9,103.4-622.3c-243.2-277.6-702.7-105.3-702.7,262.3C3376.2,845.5,3695.9,1037,3975.5,883.8z M6426.4,883.8c237.4-132.1,273.8-471,70.9-654.8c-258.5-233.6-670.2-51.7-670.2,294.9C5827.1,845.5,6146.8,1037,6426.4,883.8z M3799.3-1004.1c28.7-17.2,103.4-76.6,166.6-130.2c599.3-511.2,1528-494,2123.5,38.3c49.8,44.1,113,93.8,137.9,105.3c61.3,32.6,158.9,11.5,218.3-47.9c130.2-130.2,44-291-270-507.4c-501.7-348.5-1108.6-455.7-1704.1-302.5c-294.9,76.6-691.2,304.5-890.4,511.3c-57.4,57.4-74.7,91.9-76.6,143.6c-1.9,90,36.4,157,109.1,193.4C3692.1-962,3738-962,3799.3-1004.1z"/></g></g>
</svg>